<svg preserveAspectRatio="none" overflow="visible" style="display: block;" width="20" height="20" viewBox="0 0 20 20" fill="none" xmlns="http://www.w3.org/2000/svg">
<g id="Target">
<path id="Vector" d="M17.9109 7.0625C18.583 8.8677 18.6172 10.8485 18.0078 12.6758C17.3983 14.5031 16.182 16.0669 14.5609 17.1073C12.9398 18.1477 11.0115 18.6021 9.09642 18.395C7.18134 18.1879 5.39478 17.3317 4.03359 15.9687C2.50457 14.4448 1.61786 12.3927 1.55593 10.2347C1.494 8.07682 2.26157 5.97724 3.70068 4.36807C5.1398 2.75891 7.14097 1.76257 9.29239 1.58409C11.4438 1.40561 13.5818 2.05857 15.2664 3.40859L16.8367 1.8375C16.9239 1.75029 17.0275 1.68112 17.1414 1.63392C17.2553 1.58673 17.3775 1.56244 17.5008 1.56244C17.6241 1.56244 17.7462 1.58673 17.8602 1.63392C17.9741 1.68112 18.0776 1.75029 18.1648 1.8375C18.252 1.92471 18.3212 2.02823 18.3684 2.14217C18.4156 2.25611 18.4399 2.37823 18.4399 2.50156C18.4399 2.62489 18.4156 2.74701 18.3684 2.86095C18.3212 2.97489 18.252 3.07842 18.1648 3.16563L10.6648 10.6656C10.5776 10.7528 10.4741 10.822 10.3602 10.8692C10.2462 10.9164 10.1241 10.9407 10.0008 10.9407C9.87745 10.9407 9.75533 10.9164 9.64139 10.8692C9.52745 10.822 9.42392 10.7528 9.33672 10.6656C9.24951 10.5784 9.18034 10.4749 9.13314 10.361C9.08595 10.247 9.06165 10.1249 9.06165 10.0016C9.06165 9.87824 9.08595 9.75611 9.13314 9.64217C9.18034 9.52823 9.24951 9.42471 9.33672 9.3375L11.2117 7.4625C10.6833 7.21002 10.0892 7.12881 9.51235 7.23021C8.93552 7.3316 8.40473 7.61055 7.99406 8.02811C7.58339 8.44567 7.31331 8.98102 7.22152 9.55945C7.12973 10.1379 7.22081 10.7305 7.48204 11.2547C7.74327 11.7789 8.16163 12.2085 8.67873 12.4834C9.19583 12.7584 9.78588 12.8651 10.3665 12.7887C10.9472 12.7122 11.4895 12.4563 11.9177 12.0568C12.346 11.6573 12.6389 11.1341 12.7555 10.5602C12.8046 10.3164 12.9485 10.1021 13.1556 9.96446C13.3627 9.82681 13.616 9.77707 13.8598 9.82617C14.1035 9.87528 14.3178 10.0192 14.4555 10.2263C14.5931 10.4334 14.6429 10.6867 14.5937 10.9305C14.394 11.9142 13.8838 12.8078 13.1382 13.4799C12.3926 14.1519 11.4509 14.5668 10.4518 14.6636C9.45268 14.7603 8.4489 14.5338 7.58817 14.0174C6.72743 13.5009 6.05522 12.7218 5.67047 11.7946C5.28571 10.8675 5.20873 9.84138 5.45086 8.86723C5.69299 7.89308 6.24143 7.02238 7.01547 6.38328C7.78952 5.74418 8.74827 5.37043 9.75064 5.31705C10.753 5.26366 11.746 5.53345 12.5836 6.08672L13.9297 4.74531C12.6652 3.80098 11.1028 3.34394 9.52878 3.45794C7.95474 3.57195 6.4745 4.24937 5.35932 5.36606C4.24415 6.48274 3.56874 7.96391 3.45686 9.5381C3.34499 11.1123 3.80415 12.6741 4.7502 13.9373C5.69625 15.2004 7.06582 16.0804 8.60792 16.4158C10.15 16.7513 11.7614 16.5198 13.1467 15.7638C14.5319 15.0077 15.5984 13.7778 16.1506 12.2994C16.7027 10.821 16.7036 9.19309 16.1531 7.71406C16.1093 7.59843 16.0888 7.47527 16.0928 7.35167C16.0967 7.22808 16.1251 7.10649 16.1763 6.99391C16.2275 6.88134 16.3004 6.77999 16.3909 6.69572C16.4814 6.61145 16.5877 6.54591 16.7036 6.50289C16.8195 6.45987 16.9428 6.4402 17.0664 6.44503C17.19 6.44986 17.3113 6.47909 17.4236 6.53103C17.5358 6.58298 17.6366 6.65661 17.7203 6.74769C17.8039 6.83876 17.8687 6.94549 17.9109 7.06172V7.0625Z" fill="black"/>
</g>
</svg>
